<svg xmlns="http://www.w3.org/2000/svg" width="128" height="128" viewBox="0 0 128 128"><rect width="100%" height="100%" fill="#14532D"/><path fill="#FFFFFF" d="M39.235 68.86h12.65l-4.84-13.22q-.35-.88-.74-2.09-.38-1.21-.77-2.62-.36 1.41-.74 2.63-.39 1.23-.74 2.13zm10.1-24.75 15.62 39.77h-5.72q-.97 0-1.57-.48-.61-.48-.91-1.2l-2.97-8.11h-16.47l-2.97 8.11q-.22.64-.85 1.16-.64.52-1.57.52h-5.78l15.65-39.77zm39.32 19.83h13.2v16.09q-3.02 2.23-6.45 3.26-3.42 1.03-7.33 1.03-4.86 0-8.81-1.51t-6.74-4.21q-2.79-2.69-4.3-6.43-1.51-3.75-1.51-8.17 0-4.48 1.45-8.23 1.46-3.73 4.14-6.43 2.68-2.69 6.51-4.18 3.82-1.48 8.58-1.48 2.42 0 4.52.38t3.9 1.06q1.81.67 3.29 1.63 1.49.97 2.72 2.12l-2.11 3.36q-.5.79-1.3.97-.79.18-1.73-.39-.91-.53-1.81-1.05-.91-.52-2.02-.91-1.12-.38-2.51-.63t-3.2-.25q-2.94 0-5.32.99t-4.06 2.83q-1.68 1.85-2.58 4.43-.91 2.59-.91 5.78 0 3.41.97 6.09.98 2.68 2.75 4.54 1.78 1.85 4.28 2.83 2.5.97 5.58.97 2.2 0 3.94-.46 1.73-.47 3.38-1.27v-7.2h-5.01q-.71 0-1.11-.4t-.4-.98z"/></svg>