<svg xmlns="http://www.w3.org/2000/svg" width="128" height="128" viewBox="0 0 128 128"><rect width="100%" height="100%" fill="#34D399"/><path fill="#FFFFFF" d="M55.52 40.61v29.82q0 3.91-.96 7.04-.96 3.14-2.87 5.35-1.9 2.2-4.75 3.39-2.85 1.18-6.62 1.18-1.73 0-3.39-.21-1.67-.2-3.49-.65.09-1.28.22-2.56t.23-2.56q.09-.71.56-1.14.46-.43 1.32-.43.55 0 1.43.22.88.23 2.22.23 1.83 0 3.23-.53 1.41-.53 2.36-1.68.94-1.15 1.42-2.99t.48-4.47V40.61zm39.04 6.85H74.01v13.69h17.35v6.88H74.01v18.85h-8.64V40.61h29.19z"/></svg>